<svg width="180" height="33" viewBox="0 0 180 33" fill="none" xmlns="http://www.w3.org/2000/svg">
<path d="M7.48864 24.384L4.22464 25.728L1.05664 24.288L4.22464 31.68L7.48864 24.384ZM90.4326 0.959961C91.7766 0.959961 92.9286 1.53596 93.7926 2.39996C94.6566 3.26396 95.2326 4.51196 95.2326 5.85596C95.2326 7.19996 94.6566 8.35196 93.7926 9.21596C92.9286 10.08 91.7766 10.656 90.4326 10.656C89.0886 10.656 87.8406 10.08 86.9766 9.21596C86.1126 8.35196 85.5366 7.19996 85.5366 5.85596C85.5366 4.51196 86.1126 3.26396 86.9766 2.39996C87.8406 1.53596 89.0886 0.959961 90.4326 0.959961ZM92.4486 3.83996C91.8726 3.26396 91.2006 2.97596 90.4326 2.97596C89.5686 2.97596 88.8966 3.26396 88.4166 3.83996C87.8406 4.31996 87.5526 4.99196 87.5526 5.85596C87.5526 6.62396 87.8406 7.29596 88.4166 7.87196C88.8966 8.35196 89.5686 8.63996 90.4326 8.63996C91.2006 8.63996 91.8726 8.35196 92.4486 7.87196C92.9286 7.29596 93.2166 6.62396 93.2166 5.85596C93.2166 4.99196 92.9286 4.31996 92.4486 3.83996ZM172.129 24.384L175.393 25.728L178.657 24.288L175.393 31.68L172.129 24.384ZM90.2406 11.424C90.6246 11.424 91.0086 11.328 91.2966 11.328L91.3926 12C91.6806 15.552 93.3126 15.552 95.3286 15.552H169.345C170.401 15.552 172.993 15.552 174.433 16.992C175.873 18.336 176.257 19.776 176.257 21.312C176.257 39.168 176.257 24.864 176.257 24.768L175.393 25.152L174.529 24.768V21.6C174.433 20.448 173.857 19.296 172.801 18.624C171.745 17.76 170.209 17.856 168.865 17.856H95.0406C92.4486 17.856 90.2406 16.8 90.2406 15.456C90.2406 16.704 88.2246 17.856 85.5366 17.856H10.8486C9.50464 17.856 7.96864 17.76 6.81664 18.624C5.85664 19.296 5.18464 20.448 5.18464 21.6V24.768L4.22464 25.152L3.36064 24.768C3.36064 24.864 3.36064 39.168 3.36064 21.312C3.36064 19.776 3.74464 18.336 5.18464 16.992C6.62464 15.552 9.21664 15.552 10.2726 15.552H85.2486C87.2646 15.552 88.8966 15.552 89.1846 12L89.2806 11.328C89.5686 11.328 89.9526 11.424 90.2406 11.424Z" fill="#C551B5"/>
</svg>
