<svg width="587" height="53" viewBox="0 0 587 53" fill="none" xmlns="http://www.w3.org/2000/svg">
<g clip-path="url(#clip0_55_222)">
<path d="M6.91277 44.544L3.64877 45.888L0.384766 44.448L3.64877 51.84L6.91277 44.544ZM293.377 0.959961C294.721 0.959961 295.969 1.53596 296.833 2.39996C297.697 3.26396 298.273 4.51196 298.273 5.85596C298.273 7.19996 297.697 8.44796 296.833 9.31196C295.969 10.176 294.721 10.656 293.377 10.656C292.033 10.656 290.881 10.176 289.921 9.31196C289.057 8.44796 288.577 7.19996 288.577 5.85596C288.577 4.51196 289.057 3.26396 289.921 2.39996C290.881 1.53596 292.033 0.959961 293.377 0.959961ZM295.393 3.83996C294.913 3.35996 294.145 2.97596 293.377 2.97596C292.609 2.97596 291.841 3.35996 291.361 3.83996C290.881 4.31996 290.497 5.08796 290.497 5.85596C290.497 6.62396 290.881 7.39196 291.361 7.87196C291.841 8.35196 292.609 8.73596 293.377 8.73596C294.145 8.73596 294.913 8.35196 295.393 7.87196C295.873 7.39196 296.257 6.62396 296.257 5.85596C296.257 5.08796 295.873 4.31996 295.393 3.83996ZM579.649 44.544L582.913 45.888L586.177 44.448L582.913 51.84L579.649 44.544ZM293.281 11.904C293.665 11.904 293.953 11.904 294.337 11.808V17.472C294.721 21.024 296.353 21.408 298.273 21.408H576.865C577.921 21.408 580.513 21.312 581.953 22.752C583.393 24.096 583.777 25.632 583.777 27.168C583.777 44.928 583.777 44.928 583.777 44.928L582.913 45.312L582.049 44.928V27.456C581.953 26.304 581.281 25.056 580.321 24.384C579.265 23.616 577.729 23.712 576.385 23.712H298.081C295.489 23.712 293.281 22.656 293.281 21.216C293.281 22.56 291.169 23.712 288.481 23.712H10.1768C8.83277 23.712 7.29677 23.616 6.24077 24.384C5.28077 25.056 4.60877 26.304 4.51277 27.456V44.928L3.64877 45.312L2.78477 44.928C2.78477 44.928 2.78477 44.928 2.78477 27.168C2.78477 25.632 3.16877 24.096 4.60877 22.752C6.04877 21.312 8.64077 21.408 9.69677 21.408H288.289C290.209 21.408 291.841 21.024 292.225 17.472V11.808C292.609 11.904 292.897 11.904 293.281 11.904Z" fill="#C551B5"/>
</g>
<defs>
<clipPath id="clip0_55_222">
<rect width="586.56" height="52.8" fill="white"/>
</clipPath>
</defs>
</svg>
