<svg width="273" height="33" viewBox="0 0 273 33" fill="none" xmlns="http://www.w3.org/2000/svg">
<path d="M7.39294 24.384L4.12894 25.728L0.960938 24.288L4.12894 31.68L7.39294 24.384ZM136.993 0.959961C138.337 0.959961 139.489 1.53596 140.353 2.39996C141.217 3.26396 141.793 4.51196 141.793 5.85596C141.793 7.19996 141.217 8.35196 140.353 9.21596C139.489 10.08 138.337 10.656 136.993 10.656C135.649 10.656 134.401 10.08 133.537 9.21596C132.673 8.35196 132.097 7.19996 132.097 5.85596C132.097 4.51196 132.673 3.26396 133.537 2.39996C134.401 1.53596 135.649 0.959961 136.993 0.959961ZM139.009 3.83996C138.433 3.26396 137.761 2.97596 136.993 2.97596C136.129 2.97596 135.457 3.26396 134.977 3.83996C134.401 4.31996 134.113 4.99196 134.113 5.85596C134.113 6.62396 134.401 7.29596 134.977 7.87196C135.457 8.35196 136.129 8.63996 136.993 8.63996C137.761 8.63996 138.433 8.35196 139.009 7.87196C139.489 7.29596 139.777 6.62396 139.777 5.85596C139.777 4.99196 139.489 4.31996 139.009 3.83996ZM265.249 24.384L268.513 25.728L271.681 24.288L268.513 31.68L265.249 24.384ZM136.801 11.424C137.185 11.424 137.569 11.328 137.857 11.328L137.953 12C138.241 15.552 139.873 15.552 141.889 15.552H262.465C263.521 15.552 266.113 15.552 267.553 16.992C268.897 18.336 269.377 19.776 269.377 21.312C269.377 39.168 269.377 24.864 269.377 24.768L268.513 25.152L267.553 24.768V21.6C267.553 20.448 266.881 19.296 265.921 18.624C264.769 17.76 263.233 17.856 261.889 17.856H141.601C139.009 17.856 136.801 16.8 136.801 15.456C136.801 16.704 134.785 17.856 132.097 17.856H10.7529C9.40894 17.856 7.87294 17.76 6.72094 18.624C5.76094 19.296 5.08894 20.448 5.08894 21.6V24.768L4.12894 25.152L3.26494 24.768C3.26494 24.864 3.26494 39.168 3.26494 21.312C3.26494 19.776 3.74494 18.336 5.08894 16.992C6.52894 15.552 9.12094 15.552 10.1769 15.552H131.809C133.825 15.552 135.457 15.552 135.745 12L135.841 11.328C136.129 11.328 136.513 11.424 136.801 11.424Z" fill="#C551B5"/>
</svg>
